<?xml version="1.0" encoding="UTF-8"?>
<svg version="1.1" xmlns="http://www.w3.org/2000/svg" width="813" height="873">
<path d="M0 0 C2.0861829 -0.00231101 4.17236498 -0.00549179 6.2585454 -0.00945449 C11.92837356 -0.01772318 17.59813349 -0.01371371 23.26796174 -0.00748205 C29.40711546 -0.00292576 35.54625808 -0.00995697 41.68540955 -0.01544189 C52.99549517 -0.02379307 64.30555333 -0.02310937 75.61563824 -0.01761896 C86.06737461 -0.01257067 96.51910312 -0.01128241 106.97084045 -0.01366425 C107.66645443 -0.01381702 108.3620684 -0.01396979 109.07876158 -0.01412719 C111.90309632 -0.01474995 114.72743105 -0.01538676 117.55176577 -0.01604671 C143.99964733 -0.02215288 170.44751524 -0.01663661 196.89539469 -0.00585292 C220.34836125 0.00363697 243.80130609 0.00278766 267.25427246 -0.0067749 C293.65644841 -0.0175042 320.05861233 -0.02171969 346.46079016 -0.01555037 C349.27972253 -0.01490902 352.0986549 -0.01428334 354.91758728 -0.01366425 C355.61158588 -0.01350609 356.30558448 -0.01334794 357.02061335 -0.01318499 C367.46101626 -0.0109183 377.90141043 -0.01355512 388.34181213 -0.01862335 C400.22328582 -0.02436269 412.10473392 -0.02267718 423.98620665 -0.01206186 C430.04046558 -0.00682986 436.09468059 -0.00470598 442.14893913 -0.01136017 C447.70420027 -0.01737327 453.25937729 -0.01395726 458.81463093 -0.00340506 C460.81099806 -0.00119355 462.80737249 -0.00225587 464.80373484 -0.00715664 C506.50325146 -0.10157137 543.59454234 8.42750775 576.44421387 35.25396729 C577.38909668 35.96939697 578.33397949 36.68482666 579.30749512 37.42193604 C580.0126123 38.02650635 580.71772949 38.63107666 581.44421387 39.25396729 C581.44421387 39.91396729 581.44421387 40.57396729 581.44421387 41.25396729 C582.43421387 41.58396729 583.42421387 41.91396729 584.44421387 42.25396729 C586.99151115 44.72207398 589.17320298 47.53228887 591.44421387 50.25396729 C592.46901855 51.41412354 592.46901855 51.41412354 593.51452637 52.59771729 C615.38907292 78.0004165 628.6333925 112.54435805 628.57843494 146.11636829 C628.58078717 147.09760081 628.5831394 148.07883332 628.58556291 149.08980015 C628.59223275 152.38581073 628.5917953 155.68178171 628.59138489 158.97779846 C628.5946848 161.36181946 628.59841064 163.7458399 628.60252637 166.12985963 C628.61149026 172.00029605 628.61577182 177.87072539 628.61804533 183.7411672 C628.62101161 190.77427072 628.62971177 197.80736427 628.63845961 204.84046255 C628.65929208 221.8433504 628.66977357 238.84623997 628.67858922 255.8491376 C628.68279912 263.89983949 628.68802078 271.95054063 628.69327375 280.0012419 C628.71116663 307.58107632 628.72615912 335.16091096 628.73359394 362.74075031 C628.73406869 364.47195807 628.73454458 366.20316582 628.7350216 367.93437357 C628.73537617 369.22211753 628.73537617 369.22211753 628.73573789 370.53587652 C628.73693905 374.88518477 628.73815451 379.23449302 628.73937988 383.58380127 C628.73962003 384.44692493 628.73986018 385.3100486 628.74010761 386.19932753 C628.74799118 414.15038356 628.77140214 442.10139704 628.80393583 470.0524345 C628.83829919 499.62969514 628.85795129 529.2069309 628.86123818 558.78421181 C628.86165569 562.0368021 628.86213524 565.28939238 628.86266136 568.54198265 C628.86278455 569.34281458 628.86290775 570.14364651 628.86303467 570.96874607 C628.86535908 583.81261301 628.88097688 596.65643025 628.90150321 609.50027953 C628.92184505 622.43492591 628.92719933 635.36951313 628.91773257 648.30417255 C628.91254925 655.97064055 628.91824326 663.63691037 628.94026725 671.30334951 C628.95553193 677.05619584 628.94942278 682.80887242 628.93559673 688.56171515 C628.93323844 690.86814774 628.93745003 693.17460002 628.94942538 695.48100273 C629.16776819 740.36393259 617.05615584 780.60768774 585.44421387 813.25396729 C576.73726811 821.66131921 566.80114971 829.01814164 556.44421387 835.25396729 C555.80113281 835.64535889 555.15805176 836.03675049 554.4954834 836.44000244 C532.61116839 849.47942941 509.10537659 855.49396712 483.75735092 856.1205616 C480.77155 856.20273025 477.79180298 856.33207999 474.80905533 856.48953056 C454.0334183 857.54003015 433.24922754 857.39715167 412.45338011 857.38469195 C406.7955587 857.38240548 401.13774023 857.38593341 395.47991943 857.38867188 C384.4304968 857.3930938 373.38108099 857.39216921 362.3316581 857.38925923 C353.34549702 857.38699152 344.35933785 857.38669858 335.37317657 857.38778305 C333.44737471 857.3880129 333.44737471 857.3880129 331.48266776 857.38824739 C328.87374447 857.38856715 326.26482118 857.38889136 323.65589789 857.38921998 C299.94858534 857.39198326 276.24127692 857.38912876 252.53396504 857.38387739 C230.9399184 857.37913048 209.34587765 857.37955935 187.75183105 857.38433838 C163.42544324 857.38970427 139.09905944 857.39179183 114.77267098 857.38872612 C112.17511002 857.3884076 109.57754906 857.38809322 106.9799881 857.38778305 C105.70224236 857.38762878 104.42449662 857.3874745 103.10803132 857.38731555 C94.13925792 857.38645508 85.17048663 857.38790307 76.20171356 857.3902626 C65.26273643 857.39307749 54.32376647 857.39228676 43.38479015 857.38698186 C37.8125276 857.3843679 32.24027697 857.3833004 26.66801453 857.38663101 C21.5533359 857.38964173 16.43868009 857.38792289 11.32400349 857.38265346 C9.48791575 857.38154946 7.65182603 857.38207474 5.8157396 857.38452925 C-3.77402634 857.39635135 -13.33737071 857.24520545 -22.91817856 856.80853081 C-24.2261821 856.75041336 -24.2261821 856.75041336 -25.56060995 856.69112182 C-30.88677378 856.42392225 -36.02379512 855.85042616 -41.24719238 854.73052979 C-44.98886803 853.9581365 -48.75607471 853.62770939 -52.55578613 853.25396729 C-52.55578613 852.59396729 -52.55578613 851.93396729 -52.55578613 851.25396729 C-53.18742676 851.1676001 -53.81906738 851.08123291 -54.46984863 850.99224854 C-67.64330325 848.92321892 -79.06475329 843.86236346 -90.55578613 837.25396729 C-91.70434082 836.61588135 -92.85289551 835.97779541 -94.03625488 835.32037354 C-100.35133307 831.75935055 -100.35133307 831.75935055 -102.55578613 830.25396729 C-102.55578613 829.59396729 -102.55578613 828.93396729 -102.55578613 828.25396729 C-103.41430176 828.11861572 -103.41430176 828.11861572 -104.29016113 827.98052979 C-107.14318473 827.06559463 -108.61772149 825.66748794 -110.80578613 823.62896729 C-113.65653482 821.00144198 -116.52160929 818.43092476 -119.49328613 815.94146729 C-126.44984614 809.8631904 -132.54862006 803.01037068 -137.55578613 795.25396729 C-138.01340332 794.60814697 -138.47102051 793.96232666 -138.94250488 793.29693604 C-147.7958935 780.66822855 -153.96361902 766.91878946 -158.55578613 752.25396729 C-158.89609863 751.17631104 -159.23641113 750.09865479 -159.58703613 748.98834229 C-160.90357279 743.91330582 -161.76519134 738.79943536 -162.61828613 733.62896729 C-162.87835449 732.12269775 -162.87835449 732.12269775 -163.14367676 730.58599854 C-165.12487099 718.69883317 -165.70627043 706.90894208 -165.65742493 694.87149048 C-165.65632874 693.56714625 -165.65523256 692.26280201 -165.65410316 690.9189322 C-165.65162949 688.04448397 -165.64593091 685.17006639 -165.63775194 682.29562879 C-165.62416894 677.50826398 -165.6178189 672.72090296 -165.61214161 667.93352318 C-165.60413457 661.64551498 -165.59410446 655.35751475 -165.58194327 649.06951321 C-165.55578593 635.51912484 -165.54334634 621.96874394 -165.53366089 608.41833496 C-165.4909267 550.88352838 -165.41244373 493.34876799 -165.32343498 435.81401694 C-165.31330673 429.258356 -165.30329805 422.70269488 -165.29333496 416.14703369 C-165.2922324 415.42316111 -165.29112983 414.69928853 -165.28999385 413.95348042 C-165.25409281 390.33692225 -165.22821222 366.72036572 -165.20739645 343.10378984 C-165.18578656 318.64364251 -165.15443777 294.18352664 -165.110795 269.72340822 C-165.10463571 266.26929395 -165.0985851 262.81517949 -165.09259987 259.36106491 C-165.09141899 258.68167916 -165.09023811 258.00229341 -165.08902144 257.30232021 C-165.07040842 246.43314869 -165.06190714 235.56399244 -165.05732489 224.69480694 C-165.05250853 213.79488179 -165.03654638 202.8950169 -165.01012047 191.99512263 C-164.99616156 186.10667959 -164.98691428 180.21833273 -164.99077797 174.32987213 C-164.99421411 168.92969468 -164.9836764 163.52972206 -164.96255062 158.1295865 C-164.95732923 156.18933591 -164.9569981 154.24906377 -164.9623905 152.30881365 C-165.0698877 109.20594933 -150.76359737 72.98242332 -120.55578613 42.25396729 C-106.77589078 28.43563428 -91.41805766 18.96444668 -73.55578613 11.25396729 C-72.41367676 10.74994385 -71.27156738 10.24592041 -70.09484863 9.72662354 C-47.93760682 0.54560016 -23.64027758 -0.05803332 0 0 Z " fill="#E2B842" transform="translate(174.5557861328125,6.74603271484375)"/>
<path d="M0 0 C3 0 3 0 4.5078125 1.46875 C5.04148437 2.1390625 5.57515625 2.809375 6.125 3.5 C15.10586807 14.15303807 26.08239604 21.83295842 39 27 C40.22009766 27.50660156 40.22009766 27.50660156 41.46484375 28.0234375 C54.34263906 33.30154775 66.05853966 36.35615763 80.0625 36.25 C81.08666016 36.25773437 82.11082031 36.26546875 83.16601562 36.2734375 C93.67882615 36.2465677 102.12214443 33.73128496 111.86328125 30.0234375 C115 29 115 29 119 29 C119 28.34 119 27.68 119 27 C120.00417969 26.53851563 121.00835937 26.07703125 122.04296875 25.6015625 C133.60889235 20.14196897 150.00078271 11.99843458 156 0 C156.99 0.33 157.98 0.66 159 1 C159.2333606 2.31883179 159.2333606 2.31883179 159.47143555 3.66430664 C163.52260352 26.58486394 163.52260352 26.58486394 168.3503418 49.35180664 C169.3890053 53.90888176 170.244 58.44084286 170.921875 63.06640625 C172.12501521 71.17509477 173.81587951 79.16817131 175.5 87.1875 C175.81151589 88.68157436 176.12271516 90.17571478 176.43359375 91.66992188 C176.88562154 93.84194429 177.33770242 96.01395497 177.79040527 98.18583679 C179.35204808 105.67978406 180.85963209 113.17349959 182.21875 120.70703125 C182.42886719 121.87041016 182.63898438 123.03378906 182.85546875 124.23242188 C183.28856256 126.63806112 183.71819773 129.04432536 184.14453125 131.45117188 C184.45970703 133.18657227 184.45970703 133.18657227 184.78125 134.95703125 C184.96751953 135.99835205 185.15378906 137.03967285 185.34570312 138.11254883 C185.98061813 140.91446664 186.9322012 143.34025281 188 146 C188.46708307 147.99096083 188.88354343 149.99416123 189.26171875 152.00390625 C189.49004395 153.20200928 189.71836914 154.4001123 189.95361328 155.63452148 C190.31688721 157.57887085 190.31688721 157.57887085 190.6875 159.5625 C190.94714399 160.92858286 191.20741119 162.2945474 191.46826172 163.66040039 C192.02422216 166.57428496 192.57784864 169.48859689 193.12939453 172.40332031 C194.46866648 179.47835506 195.81784216 186.55143805 197.18032837 193.62203979 C197.61175303 195.86852137 198.03781437 198.11597376 198.46362305 200.36352539 C200.07719758 208.79058537 201.95401042 217.09385743 204.13989258 225.3918457 C205.24018729 230.00758669 205.87811981 234.61751022 206.41015625 239.328125 C207.07625359 243.4746912 208.095387 247.4594767 209.13745117 251.52539062 C210.61370779 257.4722019 211.88766282 263.46246775 213.16210938 269.45507812 C213.62609005 271.63010992 214.09811935 273.80330084 214.5703125 275.9765625 C216.14248772 283.30191055 217.455761 290.51303649 218 298 C215.28666184 296.73634915 213.0844243 295.38856385 210.828125 293.42578125 C210.25022217 292.92651123 209.67231934 292.42724121 209.0769043 291.9128418 C208.47402588 291.384729 207.87114746 290.85661621 207.25 290.3125 C206.62456299 289.77085205 205.99912598 289.2292041 205.35473633 288.67114258 C202.1154899 285.86217094 198.89847569 283.02872698 195.6875 280.1875 C192.4256767 277.31792127 189.0218626 274.67654482 185.57421875 272.03515625 C181.77575449 269.03212153 178.10260414 265.8852733 174.42895508 262.73144531 C172.0158315 260.66734386 169.6463491 258.76423273 167 257 C167 256.34 167 255.68 167 255 C159.76090188 260.70303666 152.70157346 266.59427679 145.68652344 272.56787109 C144.00637156 273.99458952 142.32063436 275.41439819 140.6328125 276.83203125 C128.91084478 286.48287754 128.91084478 286.48287754 118.125 297.125 C116 299 116 299 114.15625 299.01171875 C110.85533116 297.46291806 109.32631884 294.64204365 107.375 291.6875 C104.14533167 286.97771671 100.83616622 282.47664168 97.125 278.125 C92.46462789 272.65830954 88.16796894 266.96879046 83.93408203 261.16650391 C83.45052246 260.50956543 82.96696289 259.85262695 82.46875 259.17578125 C81.82583008 258.29273315 81.82583008 258.29273315 81.16992188 257.3918457 C80.03124913 255.85023922 80.03124913 255.85023922 78 255 C77.76152344 255.53882813 77.52304687 256.07765625 77.27734375 256.6328125 C75.6550698 259.63922845 73.66286417 262.1798127 71.5625 264.875 C71.12437988 265.43944824 70.68625977 266.00389648 70.23486328 266.58544922 C67.89555108 269.59384611 65.53809467 272.58777193 63.17578125 275.578125 C53.77548097 286.76555359 53.77548097 286.76555359 46 299 C41.4661226 298.12239626 38.74341954 295.49404925 35.375 292.5 C34.76124512 291.96262207 34.14749023 291.42524414 33.51513672 290.87158203 C32.26827264 289.77736868 31.02427307 288.67988232 29.78320312 287.57910156 C28.15067321 286.13342748 26.50740744 284.70137786 24.859375 283.2734375 C19.70613901 278.75331336 19.70613901 278.75331336 18 277 C18 276.34 18 275.68 18 275 C17.40687012 274.8875293 16.81374023 274.77505859 16.20263672 274.65917969 C13.80306659 273.94106404 12.62212596 273.09928018 10.7578125 271.453125 C10.16613281 270.9375 9.57445312 270.421875 8.96484375 269.890625 C8.35769531 269.34921875 7.75054687 268.8078125 7.125 268.25 C5.91958729 267.19234756 4.71386093 266.13505247 3.5078125 265.078125 C2.92547852 264.56185547 2.34314453 264.04558594 1.74316406 263.51367188 C0.0470527 262.04085809 -1.69124542 260.63721667 -3.4453125 259.234375 C-4.28835938 258.49703125 -5.13140625 257.7596875 -6 257 C-6 256.34 -6 255.68 -6 255 C-10.5808165 257.49071011 -14.25061918 260.68594286 -18.125 264.125 C-22.52804571 267.98994313 -26.94160427 271.81769234 -31.5 275.5 C-36.02817384 279.1714923 -40.46467569 282.93855581 -44.875 286.75 C-45.50599609 287.29333984 -46.13699219 287.83667969 -46.78710938 288.39648438 C-49.5691967 290.81039792 -52.26687478 293.23445204 -54.8203125 295.890625 C-57 298 -57 298 -59 298 C-58.38576398 291.68033456 -57.40801956 285.57739498 -56.0625 279.375 C-55.89298828 278.56804687 -55.72347656 277.76109375 -55.54882812 276.9296875 C-54.79381595 273.39290041 -53.9811025 269.93594667 -52.95703125 266.46484375 C-51.83266684 262.39418565 -51.2201778 258.3619629 -50.625 254.1875 C-49.3029788 245.3783288 -47.48906459 236.74476653 -45.47753906 228.07080078 C-44.75264036 224.92734945 -44.06013899 221.77733142 -43.375 218.625 C-43.04628906 217.12839844 -43.04628906 217.12839844 -42.7109375 215.6015625 C-42.11483382 212.58174056 -41.59252714 209.56859317 -41.09765625 206.53125 C-39.90496494 199.28171215 -38.49700709 192.08005577 -37.0625 184.875 C-36.81048828 183.58207031 -36.55847656 182.28914062 -36.29882812 180.95703125 C-35.03611064 174.60791978 -33.59796676 168.45547635 -31.6496582 162.28466797 C-30.56037432 158.45395826 -30.07273598 154.56740461 -29.5625 150.625 C-27.83304626 138.30859469 -25.62112711 126.07093763 -22.50537109 114.02368164 C-22.31797363 113.2939917 -22.13057617 112.56430176 -21.9375 111.8125 C-21.62562744 110.60271484 -21.31375488 109.39292969 -20.99243164 108.14648438 C-20.01399975 104.18876952 -19.27464536 100.20258509 -18.59765625 96.18359375 C-18.33876085 94.68370151 -18.07904671 93.18395042 -17.81860352 91.68432617 C-17.68495392 90.91414154 -17.55130432 90.14395691 -17.41360474 89.35043335 C-16.31339108 83.09813825 -15.12629784 76.86144584 -13.94775391 70.62353516 C-13.49769678 68.23779065 -13.05156407 65.8513318 -12.60546875 63.46484375 C-11.33422821 56.70698088 -10.0334966 49.9764248 -8.44140625 43.28515625 C-6.78652762 36.3043577 -5.60519574 29.26366252 -4.4375 22.1875 C-1.94983005 7.16135739 -1.94983005 7.16135739 0 0 Z " fill="#010100" transform="translate(346,396)"/>
<path d="M0 0 C1.54385376 -0.00338379 1.54385376 -0.00338379 3.11889648 -0.00683594 C24.78169861 0.46041806 43.93498862 11.79512567 58.70263672 27.05712891 C70.6162581 40.24552916 75.62383301 57.55900271 75.375 74.9375 C75.37822266 76.08605469 75.38144531 77.23460937 75.38476562 78.41796875 C75.35099522 83.69229193 75.22902014 87.69841402 73.0625 92.5625 C72.73839508 93.97209919 72.4457724 95.38936639 72.1875 96.8125 C70.192839 106.02448399 65.63990059 113.07889921 60.0625 120.5625 C59.49273437 121.36171875 58.92296875 122.1609375 58.3359375 122.984375 C53.56434464 129.47722738 48.25244417 133.82863127 41.25 137.75 C38.18097805 139.29290116 38.18097805 139.29290116 36.61669922 141.07763672 C34.80847673 142.80519078 33.37642915 143.36415994 31.0078125 144.1328125 C30.22792969 144.38933594 29.44804687 144.64585937 28.64453125 144.91015625 C27.42830078 145.29494141 27.42830078 145.29494141 26.1875 145.6875 C25.38441406 145.95175781 24.58132813 146.21601563 23.75390625 146.48828125 C15.66655055 149.11300789 8.49610822 149.77254182 0 149.8125 C-1.06927734 149.833125 -2.13855469 149.85375 -3.24023438 149.875 C-13.92930825 149.92666924 -23.57391922 147.83148331 -33.0625 142.875 C-33.73990234 142.52687256 -34.41730469 142.17874512 -35.11523438 141.82006836 C-53.93823824 131.84558097 -66.85519593 114.06956472 -73.09765625 93.96484375 C-77.077135 77.84332752 -75.8432874 60.64202266 -68.9375 45.5625 C-68.49277344 44.58023438 -68.04804688 43.59796875 -67.58984375 42.5859375 C-64.48369522 36.04231794 -61.04764477 29.77800858 -55.9375 24.5625 C-55.2775 24.5625 -54.6175 24.5625 -53.9375 24.5625 C-53.73382813 24.005625 -53.53015625 23.44875 -53.3203125 22.875 C-51.41383759 19.68677078 -48.7376585 17.75636888 -45.8125 15.5625 C-44.99652344 14.92441406 -44.99652344 14.92441406 -44.1640625 14.2734375 C-40.0056977 11.10608487 -35.69182387 8.71980881 -30.9375 6.5625 C-30.30457031 6.27439453 -29.67164063 5.98628906 -29.01953125 5.68945312 C-19.4346829 1.54965582 -10.4363033 0.00930774 0 0 Z " fill="#020100" transform="translate(424.9375,258.4375)"/>
<path d="M0 0 C1.32 0 2.64 0 4 0 C4 21.12 4 42.24 4 64 C2.68 64 1.36 64 0 64 C0 63.34 0 62.68 0 62 C-1.29768311 61.84349976 -1.29768311 61.84349976 -2.62158203 61.68383789 C-6.21870822 60.95573047 -8.8199775 59.77599133 -12.0546875 58.05859375 C-13.16328125 57.47529297 -14.271875 56.89199219 -15.4140625 56.29101562 C-16.55617188 55.67935547 -17.69828125 55.06769531 -18.875 54.4375 C-20.0403125 53.82197266 -21.205625 53.20644531 -22.40625 52.57226562 C-25.27490097 51.05564278 -28.13920156 49.53136858 -31 48 C-31 47.34 -31 46.68 -31 46 C-32.155 45.7525 -33.31 45.505 -34.5 45.25 C-39.06141704 44.12593652 -42.86773557 42.21371309 -47 40 C-47 39.34 -47 38.68 -47 38 C-47.68707031 37.80664062 -48.37414062 37.61328125 -49.08203125 37.4140625 C-49.98308594 37.15367187 -50.88414062 36.89328125 -51.8125 36.625 C-53.15248047 36.24214844 -53.15248047 36.24214844 -54.51953125 35.8515625 C-57 35 -57 35 -60 33 C-59 30 -59 30 -56.93041992 28.6496582 C-56.03943604 28.20452881 -55.14845215 27.75939941 -54.23046875 27.30078125 C-53.25916016 26.81416016 -52.28785156 26.32753906 -51.28710938 25.82617188 C-49.75280273 25.0769043 -49.75280273 25.0769043 -48.1875 24.3125 C-47.17623047 23.80138672 -46.16496094 23.29027344 -45.12304688 22.76367188 C-37.52032919 19 -37.52032919 19 -33 19 C-33 18.34 -33 17.68 -33 17 C-7 4 -7 4 -3.67041016 2.36645508 C-1.14369263 1.24615075 -1.14369263 1.24615075 0 0 Z " fill="#0A0803" transform="translate(325,301)"/>
<path d="M0 0 C-0.38713583 3.6777904 -1.26085241 6.80735156 -2.6875 10.1875 C-5.03626671 15.84319456 -6.82806611 21.62950535 -8.64282227 27.47192383 C-10.40281128 33.13025265 -12.23346412 38.75933371 -14.125 44.375 C-16.25951373 50.7218788 -18.29825365 57.08663548 -20.23828125 63.49609375 C-20.79892504 65.33903053 -21.39084177 67.17252532 -22 69 C-25.3955378 67.53196624 -27.59241528 65.64587666 -30.18603516 63.02514648 C-31.40717514 61.79893837 -31.40717514 61.79893837 -32.65298462 60.54795837 C-33.52289032 59.66459305 -34.39279602 58.78122772 -35.2890625 57.87109375 C-36.63851456 56.51383934 -36.63851456 56.51383934 -38.01522827 55.12916565 C-40.4017304 52.7278665 -42.78408297 50.32261039 -45.16412354 47.91491699 C-48.52373316 44.51726876 -51.88858207 41.12483739 -55.25619507 37.73512268 C-57.04851575 35.93050682 -58.83815718 34.1232254 -60.62490845 32.31309509 C-61.43269745 31.49877518 -62.24048645 30.68445526 -63.07275391 29.84545898 C-63.78460846 29.12535141 -64.49646301 28.40524384 -65.22988892 27.66331482 C-66.90949874 25.92584209 -66.90949874 25.92584209 -69 25 C-69 24.01 -69 23.02 -69 22 C-68.10539062 21.75765625 -67.21078125 21.5153125 -66.2890625 21.265625 C-58.21309914 19.0515351 -58.21309914 19.0515351 -50.375 16.125 C-44.8055937 13.78856614 -39.04952198 12.19361544 -33.25976562 10.50585938 C-25.18876102 8.1221948 -17.26268606 5.37175326 -9.33911133 2.54003906 C-8.40993896 2.2097168 -7.4807666 1.87939453 -6.5234375 1.5390625 C-5.284729 1.09361084 -5.284729 1.09361084 -4.02099609 0.63916016 C-2 0 -2 0 0 0 Z " fill="#060502" transform="translate(540,220)"/>
<path d="M0 0 C8.99529347 1.51248297 17.43782046 4.22538662 25.9375 7.5 C30.43300551 9.22687477 35.04195675 10.56691785 39.65625 11.9375 C42.0995771 12.71388431 44.45562957 13.53872801 46.84375 14.45703125 C51.16521192 16.10295718 55.55701528 17.4131257 60 18.6875 C61.16208984 19.02491211 61.16208984 19.02491211 62.34765625 19.36914062 C64.23096846 19.91553367 66.11537024 20.45816894 68 21 C67.43403099 24.80359752 65.83998692 26.52087358 63.13867188 29.18603516 C62.32112427 30.00012848 61.50357666 30.8142218 60.66125488 31.65298462 C59.77272827 32.52289032 58.88420166 33.39279602 57.96875 34.2890625 C56.60937317 35.63851456 56.60937317 35.63851456 55.22253418 37.01522827 C52.81473467 39.40356825 50.40093673 41.78547955 47.98358154 44.16412354 C44.57450258 47.52102916 41.17546096 50.88807555 37.77746582 54.25619507 C35.96769203 56.04893461 34.15485307 57.83858592 32.33874512 59.62490845 C31.52119751 60.43269745 30.7036499 61.24048645 29.86132812 62.07275391 C29.13820435 62.78460846 28.41508057 63.49646301 27.67004395 64.22988892 C25.92563917 65.90829628 25.92563917 65.90829628 25 68 C24.01 68 23.02 68 22 68 C21.39037655 66.06952575 20.7807947 64.13903837 20.17138672 62.20849609 C19.63463536 60.50938678 19.09718569 58.81049793 18.55908203 57.11181641 C17.15861652 52.6874521 15.7688804 48.26039422 14.40625 43.82421875 C14.14924316 42.9938208 13.89223633 42.16342285 13.62744141 41.30786133 C13.14093274 39.73483769 12.65854923 38.16052968 12.18115234 36.5847168 C10.97796509 32.71209105 9.61286519 29.03599787 7.921875 25.34765625 C6.29808477 21.79980165 5.20113427 18.38959191 4.375 14.5625 C3.56163041 10.31684393 3.56163041 10.31684393 1 7 C0.59952556 4.67724823 0.2602896 2.34260643 0 0 Z " fill="#050401" transform="translate(311,221)"/>
<path d="M0 0 C2.97 0.99 5.94 1.98 9 3 C9 3.66 9 4.32 9 5 C9.969375 5.2475 10.93875 5.495 11.9375 5.75 C20.01970333 8.09383897 27.00929658 12.11081355 34.20703125 16.3984375 C36.3947039 17.65290713 38.48593227 18.73595994 40.8125 19.6875 C43.73675542 20.89160517 46.322296 22.34562806 49.03125 23.96484375 C52.17160452 25.61602222 55.51193796 26.72538147 58.86328125 27.875 C61.41294302 29.2174179 62.00011101 30.34836068 63 33 C61.39967863 33.84069415 59.79458829 34.67231505 58.1875 35.5 C57.29417969 35.9640625 56.40085937 36.428125 55.48046875 36.90625 C53 38 53 38 50 38 C49.67 38.99 49.34 39.98 49 41 C47.37752091 41.74363625 45.7465321 42.4730833 44.08203125 43.1171875 C41.82114977 44.07583518 39.79877468 45.24748536 37.6875 46.5 C33.00338074 49.1731784 28.20431325 50.66361059 23 52 C23 52.66 23 53.32 23 54 C22.319375 54.2475 21.63875 54.495 20.9375 54.75 C18.12156334 55.94827092 15.5443261 57.37627846 12.90234375 58.9140625 C10.87307008 60.07245692 8.82528856 61.17618096 6.75 62.25 C6.10546875 62.58515625 5.4609375 62.9203125 4.796875 63.265625 C3 64 3 64 0 64 C0 42.88 0 21.76 0 0 Z " fill="#060502" transform="translate(522,301)"/>
<path d="M0 0 C3 1 3 1 4.31640625 3.43359375 C4.72761719 4.42488281 5.13882813 5.41617188 5.5625 6.4375 C7.24357549 10.57472599 7.24357549 10.57472599 10 14 C10.83933502 16.01440404 11.51968416 18.05819665 12.21875 20.125 C12.94192432 22.19575753 12.94192432 22.19575753 15 24 C15 25.32 15 26.64 15 28 C15.66 28 16.32 28 17 28 C18.93835621 31.70788639 20.87553224 35.41638813 22.8125 39.125 C23.35970703 40.17171875 23.90691406 41.2184375 24.47070312 42.296875 C26.59718 46.36940042 28.72152331 50.4381069 30.76171875 54.5546875 C32.01807653 57.15600305 32.01807653 57.15600305 34 60 C34 60.99 34 61.98 34 63 C12.55 63 -8.9 63 -31 63 C-27.54776187 54.36940468 -23.5974914 46.15226879 -19.25 37.9375 C-14.38302653 28.68083914 -9.62787869 19.37826004 -5 10 C-4.34 10 -3.68 10 -3 10 C-2.87625 9.278125 -2.7525 8.55625 -2.625 7.8125 C-2.0095069 5.04278106 -1.11555626 2.6029646 0 0 Z " fill="#060502" transform="translate(424,175)"/>
<path d="M0 0 C14.53139124 12.94536919 18.80470838 43.85058512 21 62 C21.13920126 65.29820658 21.13609408 68.59235389 21.12863445 71.89312744 C21.13038749 72.87765552 21.13214053 73.86218359 21.13394669 74.87654585 C21.13860767 78.18366179 21.1361409 81.49073378 21.13371277 84.79785156 C21.1355807 87.18971194 21.13788133 89.581572 21.14057809 91.97343159 C21.1454247 97.17818295 21.14715002 102.38292579 21.14612198 107.58767891 C21.1445969 115.32774522 21.14875919 123.06780123 21.1539966 130.80786554 C21.16366933 145.4376074 21.16648084 160.06734576 21.16705366 174.69709045 C21.16751323 185.99733052 21.16957168 197.29756921 21.17275429 208.59780884 C21.17365184 211.85077635 21.17454165 215.10374387 21.17542917 218.35671139 C21.17565021 219.16542228 21.17587126 219.97413318 21.17609901 220.80735047 C21.18225377 243.55713915 21.18619953 266.30692736 21.18575573 289.05671692 C21.18574015 289.91451834 21.18572457 290.77231976 21.18570852 291.65611517 C21.18562541 296.00377508 21.18552637 300.35143498 21.18542381 304.69909489 C21.18540387 305.5625485 21.18538392 306.42600211 21.18536337 307.31562097 C21.18532294 309.06173629 21.18528114 310.80785161 21.18523798 312.55396692 C21.18462546 339.71029971 21.19212729 366.86662001 21.20581055 394.02294922 C21.22117936 424.53704017 21.22977625 455.05112291 21.22884732 485.56521797 C21.2287727 488.82070033 21.22872399 492.07618268 21.22869301 495.33166504 C21.22868135 496.13323862 21.2286697 496.9348122 21.22865769 497.76067589 C21.22862695 510.64761016 21.23500685 523.53453357 21.24362527 536.42146461 C21.2521125 549.38055475 21.25308336 562.33962904 21.24651595 575.29872042 C21.24282717 582.99188313 21.24463251 590.68499762 21.25445829 598.37815519 C21.26118367 604.13133122 21.25738652 609.88446281 21.24958507 615.63763571 C21.24805004 617.95867427 21.24986634 620.27971808 21.25544515 622.60075045 C21.28230901 634.57401297 21.07337977 646.18249401 19 658 C18.67 658 18.34 658 18 658 C18.00037972 656.76687675 18.00075944 655.53375349 18.00115067 654.26326287 C18.01782638 599.89546981 18.03325321 545.52767651 18.04234314 491.15988159 C18.0424812 490.33626042 18.04261925 489.51263925 18.04276149 488.66405986 C18.04575468 470.76282845 18.04852482 452.86159702 18.05106533 434.96036554 C18.05231262 426.18109655 18.05360918 417.40182757 18.05493164 408.62255859 C18.0550624 407.74893444 18.05519316 406.87531028 18.05532788 405.97521267 C18.05958618 377.67896731 18.06709521 349.38272395 18.07629722 321.08647981 C18.08573942 291.99869167 18.09188767 262.91090464 18.09391499 233.82311499 C18.09420313 229.71089212 18.09452876 225.59866925 18.09487724 221.48644638 C18.09494467 220.67713381 18.09501209 219.86782125 18.09508156 219.03398405 C18.09626143 206.02731216 18.10089451 193.0206437 18.10683203 180.0139732 C18.11273289 166.92515715 18.11496458 153.83634448 18.11350138 140.74752714 C18.11274312 132.97950328 18.11474769 125.21149187 18.12079754 117.44347027 C18.1250149 111.62894719 18.12394729 105.81443431 18.12089889 99.99991094 C18.12047832 97.65774851 18.12172986 95.31558502 18.12488318 92.97342469 C18.41390273 67.5001669 18.41390273 67.5001669 14.8125 42.375 C14.48475586 40.92734253 14.48475586 40.92734253 14.15039062 39.45043945 C11.47129785 28.09542545 7.60538494 17.36191496 1.98046875 7.11328125 C0.88885189 4.76043376 0.41571182 2.55238115 0 0 Z " fill="#7D6F70" transform="translate(782,81)"/>
<path d="M0 0 C0.33 0 0.66 0 1 0 C1 202.95 1 405.9 1 615 C0.67 615 0.34 615 0 615 C-2.68832703 596.42638753 -3.38235679 578.15088744 -3.21493176 559.4217274 C-3.18314085 555.4224962 -3.17067271 551.42319666 -3.15642357 547.42387104 C-3.13636248 542.11228339 -3.11438644 536.80072522 -3.08518231 531.48917907 C-3.00570304 517.0209485 -2.97470577 502.55299949 -2.9631958 488.08456421 C-2.96225194 486.95752281 -2.96130809 485.83048142 -2.96033563 484.66928726 C-2.95645238 479.99945885 -2.95268038 475.32963038 -2.94915397 470.65980169 C-2.93853763 456.98284324 -2.91886789 443.30589939 -2.89883423 429.62895203 C-2.89697565 428.34372739 -2.89511707 427.05850275 -2.89320217 425.73433191 C-2.83986758 388.87904379 -2.77949169 352.02376571 -2.71621138 315.16849342 C-2.70495466 308.60834141 -2.69377196 302.04818929 -2.68261719 295.48803711 C-2.68138386 294.76366286 -2.68015054 294.03928861 -2.67887984 293.29296363 C-2.63865781 269.64115075 -2.60524654 245.98933412 -2.57531309 222.33750615 C-2.54428454 197.84661006 -2.50680896 173.35573229 -2.46109388 148.86485899 C-2.45464623 145.40953799 -2.44827007 141.95421686 -2.44193649 138.49889565 C-2.44068819 137.81925185 -2.43943988 137.13960806 -2.43815375 136.43936901 C-2.41833678 125.54954491 -2.40523685 114.65972285 -2.39470672 103.76988625 C-2.38400913 92.86011702 -2.36592724 81.95037953 -2.34083296 71.04063388 C-2.32747797 65.14281904 -2.31730429 59.24504452 -2.31578636 53.34721375 C-2.31432495 47.94557967 -2.30367546 42.54404276 -2.28586559 37.14243857 C-2.28103688 35.1949207 -2.27950999 33.24739108 -2.28172119 31.29986849 C-2.29181208 20.66368071 -1.90745904 10.49689722 0 0 Z " fill="#8D7A6F" transform="translate(12,127)"/>
<path d="M0 0 C2.25826371 -0.00461786 4.5165244 -0.01097668 6.7747789 -0.01890898 C12.93417291 -0.03550381 19.09331688 -0.02740086 25.25271142 -0.0149641 C31.22780224 -0.00681087 37.20285262 -0.01752491 43.17793408 -0.02755357 C56.14204467 -0.04854514 69.10607608 -0.04681949 82.07019408 -0.03523792 C93.41632215 -0.0251523 104.7624213 -0.02255975 116.10855293 -0.02732849 C116.86288994 -0.02763403 117.61722694 -0.02793957 118.39442265 -0.02825437 C121.4569856 -0.02949985 124.51954855 -0.03077346 127.58211148 -0.03209343 C156.27799875 -0.04431373 184.97383579 -0.03326076 213.6697153 -0.01170584 C239.12945158 0.0072729 264.58910781 0.00557788 290.04884338 -0.0135498 C318.69270637 -0.03499808 347.336525 -0.04344494 375.9803949 -0.03110075 C379.03749819 -0.029818 382.09460148 -0.02856663 385.15170479 -0.02732849 C385.90437006 -0.02701218 386.65703533 -0.02669587 387.43250863 -0.02636998 C398.76707484 -0.02183216 410.10160884 -0.02711864 421.43617058 -0.0372467 C434.33302249 -0.04871372 447.22978328 -0.04576089 460.12662392 -0.02412373 C466.70113502 -0.01345556 473.27551769 -0.00943869 479.8500309 -0.02272034 C485.8784809 -0.03471422 491.90662001 -0.02796686 497.93504215 -0.00681013 C500.10575337 -0.00237357 502.27649132 -0.00454321 504.44718509 -0.01431328 C521.21511758 -0.0839438 537.42238412 1.42011538 553.00953674 8.07043457 C554.09331604 8.50645996 554.09331604 8.50645996 555.19898987 8.95129395 C570.15984733 15.04746832 583.71466681 23.31429255 596.19703674 33.50793457 C597.14191956 34.22336426 598.08680237 34.93879395 599.06031799 35.67590332 C599.76543518 36.28047363 600.47055237 36.88504395 601.19703674 37.50793457 C601.19703674 38.16793457 601.19703674 38.82793457 601.19703674 39.50793457 C602.18703674 39.83793457 603.17703674 40.16793457 604.19703674 40.50793457 C605.70484924 41.96887207 605.70484924 41.96887207 607.32203674 43.88293457 C607.93305237 44.60609863 608.54406799 45.3292627 609.17359924 46.07434082 C609.84133362 46.87742676 610.50906799 47.6805127 611.19703674 48.50793457 C611.92664612 49.36258301 612.65625549 50.21723145 613.40797424 51.09777832 C618.49990921 57.15422657 623.61702258 63.41049391 627.19703674 70.50793457 C626.86703674 71.16793457 626.53703674 71.82793457 626.19703674 72.50793457 C625.77293518 71.89047363 625.34883362 71.2730127 624.91188049 70.63684082 C614.93545636 56.2313229 603.81926234 40.76717382 588.57203674 31.57043457 C586.90141174 30.54949707 586.90141174 30.54949707 585.19703674 29.50793457 C585.19703674 28.84793457 585.19703674 28.18793457 585.19703674 27.50793457 C584.66078674 27.23980957 584.12453674 26.97168457 583.57203674 26.69543457 C580.78037008 25.29960124 577.98870341 23.9037679 575.19703674 22.50793457 C575.19703674 21.84793457 575.19703674 21.18793457 575.19703674 20.50793457 C574.35141174 20.23980957 573.50578674 19.97168457 572.63453674 19.69543457 C569.05849607 18.46007507 565.65842766 17.03094657 562.19703674 15.50793457 C562.19703674 14.84793457 562.19703674 14.18793457 562.19703674 13.50793457 C560.98016174 13.38418457 559.76328674 13.26043457 558.50953674 13.13293457 C555.13224616 12.71902151 552.29946979 11.96220006 549.19703674 10.50793457 C549.19703674 9.84793457 549.19703674 9.18793457 549.19703674 8.50793457 C548.57699768 8.39836426 547.95695862 8.28879395 547.31813049 8.17590332 C540.51119927 6.95719511 533.73898718 5.60836454 526.97047424 4.19152832 C519.6472855 2.86486369 512.4663096 2.36044865 505.03167725 2.38209343 C504.15011985 2.38063999 503.26856244 2.37918655 502.36029118 2.37768906 C499.41547457 2.37404871 496.47071037 2.37750638 493.52589417 2.38095093 C491.38947078 2.37979832 489.2530476 2.37820986 487.11662483 2.37622368 C481.25235724 2.37204926 475.38810593 2.37411259 469.52383828 2.3772099 C463.19641271 2.37947155 456.86898995 2.37598049 450.54156494 2.37322998 C438.86283388 2.36903805 427.18410941 2.36940464 415.50537818 2.37214145 C404.71112986 2.37465848 393.91688344 2.37531303 383.12263489 2.3741188 C382.40620669 2.37404242 381.68977848 2.37396603 380.95164034 2.37388733 C378.04322759 2.37357598 375.13481484 2.37325758 372.22640209 2.37292757 C344.94248952 2.36986866 317.65858024 2.37264142 290.37466818 2.37802447 C266.15839213 2.38276599 241.94212134 2.38234884 217.72584534 2.37756348 C190.50343336 2.37220202 163.2810243 2.37008967 136.05861187 2.37317574 C133.15306282 2.37349644 130.24751377 2.37380928 127.34196472 2.3741188 C126.62657432 2.37419788 125.91118391 2.37427696 125.17411501 2.37435843 C114.39475731 2.37549349 103.61540172 2.37417005 92.83604431 2.37163925 C80.56696673 2.36877302 68.29789692 2.36960515 56.02881974 2.37492 C49.77262437 2.37754108 43.51643965 2.37858918 37.26024437 2.37527084 C31.52462904 2.37227477 25.78903415 2.37395551 20.05342066 2.3792484 C17.9867793 2.38035856 15.92013618 2.37981279 13.85349596 2.37737261 C-9.27771759 2.08456045 -9.27771759 2.08456045 -31.97093201 5.88684082 C-34.9939355 6.54981676 -37.71776254 6.61305993 -40.80296326 6.50793457 C-40.80296326 5.84793457 -40.80296326 5.18793457 -40.80296326 4.50793457 C-27.06568173 0.75301125 -14.19376772 -0.06381288 0 0 Z " fill="#B99B4F" transform="translate(154.80296325683594,8.4920654296875)"/>
<path d="M0 0 C1.70011986 0.1071936 1.70011986 0.1071936 3.43458557 0.21655273 C14.52233922 0.87942867 25.55722992 1.12598172 36.66311073 1.07530212 C39.70186003 1.06171997 42.74056788 1.05516488 45.77934265 1.04992676 C50.37473331 1.04155226 54.97010946 1.03081737 59.56549072 1.01831055 C72.83140105 0.98368677 86.09733188 0.9731877 99.36328125 0.96875 C100.10978534 0.96846235 100.85628942 0.96817471 101.62541485 0.96787834 C153.97456838 0.94980153 206.32339937 1.24011398 258.67184687 1.48177338 C262.63927714 1.50006583 266.60670781 1.51826732 270.57413864 1.53643799 C303.38277956 1.68671749 336.19140079 1.84087335 369 2 C369 2.33 369 2.66 369 3 C332.72653746 3.97699714 296.46598203 4.15096137 260.18252556 4.13529945 C254.66383457 4.13298384 249.14514665 4.13274371 243.62645531 4.13381577 C242.82861652 4.133969 242.03077774 4.13412223 241.20876202 4.13428011 C239.58623201 4.13459994 237.96370201 4.13492416 236.341172 4.1352527 C221.3038848 4.1380711 206.26660381 4.134876 191.22931763 4.12945233 C178.38733174 4.12496402 165.54535488 4.1257839 152.70336914 4.13037109 C137.66267966 4.1357414 122.62199551 4.13782109 107.58130521 4.13475883 C105.97437648 4.13444037 104.36744775 4.134126 102.76051903 4.13381577 C101.97051319 4.13366149 101.18050736 4.13350721 100.36656195 4.13334826 C94.85450934 4.13249221 89.34246018 4.13392561 83.8304081 4.13629532 C77.11537321 4.13911998 70.40034999 4.13829844 63.68531642 4.13301457 C60.27384636 4.13041681 56.86241141 4.12985875 53.45093918 4.13266373 C41.36962324 4.14167556 29.29591385 4.11983583 17.22331238 3.61691284 C16.39748132 3.58655603 15.57165026 3.55619921 14.72079402 3.52492249 C9.5763497 3.27175853 4.96099904 2.39321094 0 1 C0 0.67 0 0.34 0 0 Z " fill="#7A718A" transform="translate(134,860)"/>
<path d="M0 0 C14.57938613 12.9881257 18.71871208 43.81524695 21 62 C21.07421231 64.41824209 21.09847945 66.83834877 21.08229065 69.25767517 C21.07906152 69.95377649 21.07583239 70.64987782 21.07250541 71.36707312 C21.06051857 73.6808903 21.04112827 75.99458363 21.02172852 78.30834961 C21.01157635 79.97438291 21.0018837 81.64041907 20.99261475 83.30645752 C20.96622767 87.81626923 20.93342933 92.32601403 20.89946485 96.83577418 C20.8650285 101.55362424 20.83650931 106.27151001 20.80735779 110.98939514 C20.75129451 119.91755849 20.68992307 128.8456771 20.62663645 137.77379185 C20.55482843 147.94060275 20.48895028 158.10744939 20.42356598 168.27430332 C20.28896748 189.1829153 20.14693597 210.09147132 20 231 C19.67 231 19.34 231 19 231 C18.99576806 230.19714884 18.99153612 229.39429768 18.98717594 228.56711769 C18.88350178 208.95789525 18.77481214 189.34870633 18.66066074 169.73954201 C18.60557491 160.25638601 18.55213583 150.77322626 18.50268555 141.29003906 C18.45953931 133.01661569 18.41318911 124.74321726 18.36312145 116.46983278 C18.33676296 112.09632782 18.31192053 107.72282702 18.29092598 103.34929276 C18.27104059 99.21742143 18.24681271 95.08559652 18.21950912 90.95376778 C18.21030428 89.45198363 18.20257321 87.95018945 18.19658089 86.44838905 C18.16354421 78.40331038 17.97719117 70.38378129 17.54844666 62.34921265 C17.50983223 61.60706249 17.47121781 60.86491233 17.43143326 60.10027277 C17.0804744 54.05175587 16.19245435 48.2661369 14.8125 42.375 C14.48475586 40.92734253 14.48475586 40.92734253 14.15039062 39.45043945 C11.47129785 28.09542545 7.60538494 17.36191496 1.98046875 7.11328125 C0.88885189 4.76043376 0.41571182 2.55238115 0 0 Z " fill="#A08755" transform="translate(782,81)"/>
<path d="M0 0 C0 0.33 0 0.66 0 1 C-26.31887602 3.9338141 -52.6225785 4.15643519 -79.078125 3.87890625 C-81.84062688 3.85381858 -84.60314381 3.83061605 -87.36566162 3.80735779 C-93.80694598 3.75207988 -100.24815404 3.69058571 -106.68935752 3.62663645 C-114.04411569 3.55393662 -121.39893353 3.48850423 -128.75376368 3.42356598 C-143.83591999 3.2902438 -158.9179817 3.1481731 -174 3 C-174 2.67 -174 2.34 -174 2 C-139.78487825 1.25517934 -105.57328912 0.76106548 -71.35144043 0.46777344 C-66.6395649 0.42674162 -61.92771534 0.38306749 -57.21586418 0.33933926 C-51.49548126 0.28638502 -45.7750851 0.23493335 -40.0546875 0.18359375 C-39.00352627 0.17403593 -37.95236504 0.16447811 -36.86935043 0.15463066 C-24.57920415 0.044003 -12.29066102 -0.02727761 0 0 Z " fill="#918077" transform="translate(678,860)"/>
<path d="M0 0 C6.22465451 -0.15422831 11.85607972 0.25339935 17.9375 1.5625 C18.74727295 1.73450928 19.5570459 1.90651855 20.39135742 2.08374023 C42.66822649 7.13931538 63.42486958 18.64738997 81 33 C81.94488281 33.71542969 82.88976562 34.43085937 83.86328125 35.16796875 C84.56839844 35.77253906 85.27351562 36.37710938 86 37 C86 37.66 86 38.32 86 39 C87.485 39.495 87.485 39.495 89 40 C90.5078125 41.4609375 90.5078125 41.4609375 92.125 43.375 C92.73601562 44.09816406 93.34703125 44.82132813 93.9765625 45.56640625 C94.64429688 46.36949219 95.31203125 47.17257813 96 48 C96.72960937 48.85464844 97.45921875 49.70929687 98.2109375 50.58984375 C103.30287247 56.646292 108.41998584 62.90255934 112 70 C111.67 70.66 111.34 71.32 111 72 C110.36384766 71.07380859 110.36384766 71.07380859 109.71484375 70.12890625 C99.73841962 55.72338833 88.62222559 40.25923925 73.375 31.0625 C72.26125 30.381875 71.1475 29.70125 70 29 C70 28.34 70 27.68 70 27 C69.46375 26.731875 68.9275 26.46375 68.375 26.1875 C65.58333333 24.79166667 62.79166667 23.39583333 60 22 C60 21.34 60 20.68 60 20 C59.154375 19.731875 58.30875 19.46375 57.4375 19.1875 C53.86145933 17.9521405 50.46139092 16.523012 47 15 C47 14.34 47 13.68 47 13 C45.783125 12.87625 44.56625 12.7525 43.3125 12.625 C39.93520941 12.21108694 37.10243305 11.45426549 34 10 C34 9.34 34 8.68 34 8 C33.06994141 7.83564453 33.06994141 7.83564453 32.12109375 7.66796875 C24.05713725 6.22420361 16.02898891 4.6253014 8 3 C8 2.34 8 1.68 8 1 C5.36 1 2.72 1 0 1 C0 0.67 0 0.34 0 0 Z " fill="#5E5A7A" transform="translate(670,9)"/>
<path d="M0 0 C1.05057083 0.07105453 2.10114166 0.14210907 3.18354797 0.21531677 C17.67990078 1.12347013 32.14797627 1.12845821 46.66796875 1.09765625 C49.28640211 1.09578669 51.90483582 1.09436534 54.52326965 1.09336853 C60.65669122 1.09029164 66.79009442 1.08212873 72.92350799 1.07201904 C79.92018533 1.06074303 86.91686367 1.05531886 93.91354787 1.05032361 C108.27570795 1.03994195 122.63785371 1.02241506 137 1 C137 1.33 137 1.66 137 2 C135.93265625 2.02505615 134.8653125 2.0501123 133.765625 2.07592773 C129.72485609 2.17161596 125.68419644 2.27141094 121.64355469 2.37231445 C119.9098571 2.41506448 118.17613332 2.4567676 116.44238281 2.49731445 C108.08631861 2.69338664 99.75566526 2.91116295 91.41796875 3.52734375 C80.91309507 4.23157741 70.39953202 4.14919679 59.87524414 4.13037109 C56.33670719 4.12503649 52.79829861 4.13033195 49.25976562 4.13671875 C38.59842226 4.14100023 27.94610174 4.06185598 17.29296875 3.6171875 C16.46356277 3.58682404 15.6341568 3.55646057 14.77961731 3.525177 C9.61342552 3.27283593 4.98146492 2.40071466 0 1 C0 0.67 0 0.34 0 0 Z " fill="#9A8670" transform="translate(134,860)"/>
<path d="M0 0 C0.495 1.485 0.495 1.485 1 3 C0.319375 3.33 -0.36125 3.66 -1.0625 4 C-4.28794341 6.19604658 -6.3340355 8.57585806 -8.8359375 11.53515625 C-11.51720559 14.58909157 -14.32798526 17.48859463 -17.1875 20.375 C-17.95429077 21.16088501 -17.95429077 21.16088501 -18.73657227 21.96264648 C-20.78251517 24.01460785 -22.59895952 25.79983466 -25.20703125 27.1015625 C-27.58400656 28.29263945 -28.24225782 29.68847382 -29.5 32 C-31.25824588 35.23137081 -32.56722968 36.60361885 -36 38 C-34.46350289 32.91400007 -31.33706382 29.57269412 -27.875 25.6875 C-27.28605957 25.01960449 -26.69711914 24.35170898 -26.09033203 23.66357422 C-9.15205196 4.57602598 -9.15205196 4.57602598 0 0 Z " fill="#C5A247" transform="translate(71,35)"/>
<path d="M0 0 C1.72304619 0.00748861 3.44610107 0.01316908 5.16915894 0.01715088 C9.63752031 0.03220162 14.10533606 0.07129737 18.57348633 0.1159668 C23.15959295 0.15737171 27.74579038 0.17525699 32.33203125 0.1953125 C41.28148574 0.23781869 50.23054072 0.3058099 59.1796875 0.390625 C59.1796875 0.720625 59.1796875 1.050625 59.1796875 1.390625 C58.10878624 1.4060862 58.10878624 1.4060862 57.01625061 1.42185974 C50.20791082 1.52082711 43.39963449 1.62345949 36.59140873 1.72996426 C33.09327263 1.78456477 29.59512789 1.83786609 26.09692383 1.88793945 C-1.19886151 1.57391279 -1.19886151 1.57391279 -27.98828125 5.76953125 C-31.01128474 6.43250719 -33.73511179 6.49575036 -36.8203125 6.390625 C-36.8203125 5.730625 -36.8203125 5.070625 -36.8203125 4.390625 C-24.35375206 1.11298911 -12.86294494 -0.16805433 0 0 Z " fill="#B49750" transform="translate(150.8203125,8.609375)"/>
<path d="M0 0 C14.56253761 12.9731161 19.37584845 44.64014623 20.8125 62.9375 C20.89302803 64.62423582 20.96435492 66.31171924 21 68 C18.60470123 65.60470123 18.73935321 64.96196395 18.5625 61.6875 C18.03747447 55.28587294 16.53550849 49.22363105 15 43 C14.78472656 42.03191406 14.56945312 41.06382813 14.34765625 40.06640625 C11.72175863 28.61500657 7.63784785 17.42106258 1.98046875 7.11328125 C0.88885189 4.76043376 0.41571182 2.55238115 0 0 Z " fill="#5E5A7B" transform="translate(782,81)"/>
<path d="M0 0 C0.33 0.99 0.66 1.98 1 3 C-0.10867258 4.83623896 -1.23166096 6.66480435 -2.41015625 8.45703125 C-10.77527645 21.83711295 -17.27153437 37.26500251 -19 53 C-19.66 53 -20.32 53 -21 53 C-20.12379088 36.6440964 -11.82695039 11.82695039 0 0 Z " fill="#5C587C" transform="translate(34,73)"/>
<path d="M0 0 C0.495 0.99 0.495 0.99 1 2 C0.34 2 -0.32 2 -1 2 C-1 2.66 -1 3.32 -1 4 C-4.90317029 6.57443147 -7.67605706 8.17323607 -12.375 8.4375 C-17.05743941 8.74270188 -20.21173792 10.48808375 -24.15234375 12.94140625 C-26 14 -26 14 -28 14 C-28 14.66 -28 15.32 -28 16 C-29.24735567 16.6509259 -30.49801832 17.29551669 -31.75 17.9375 C-32.44609375 18.29714844 -33.1421875 18.65679687 -33.859375 19.02734375 C-35.90224433 19.95558182 -37.81115376 20.53166578 -40 21 C-36.88613181 17.56479898 -33.45565744 15.29353252 -29.4375 13.0625 C-28.81834717 12.71477539 -28.19919434 12.36705078 -27.5612793 12.00878906 C-18.70586654 7.09962445 -9.5617181 3.31053683 0 0 Z " fill="#5E5A7B" transform="translate(112,14)"/>
<path d="M0 0 C0 3.54241999 -0.45400919 3.84418107 -2.81640625 6.29296875 C-3.41243652 6.91945313 -4.0084668 7.5459375 -4.62255859 8.19140625 C-5.26273926 8.85011719 -5.90291992 9.50882812 -6.5625 10.1875 C-7.85907602 11.54461527 -9.15466075 12.90267834 -10.44921875 14.26171875 C-11.38000244 15.2350415 -11.38000244 15.2350415 -12.32958984 16.22802734 C-14.24758346 18.26263677 -16.07394146 20.36150661 -17.875 22.5 C-21.22761194 26.40995152 -25.04543221 29.71308651 -29 33 C-29.33 32.01 -29.66 31.02 -30 30 C-20.1 20.1 -10.2 10.2 0 0 Z " fill="#C49F3D" transform="translate(366,257)"/>
<path d="M0 0 C6.29853938 -0.16278531 11.97441203 0.28939603 18.125 1.625 C18.93888184 1.7995874 19.75276367 1.9741748 20.59130859 2.15405273 C28.31122256 3.90816782 36.01004577 6.22300744 43 10 C43.495 11.485 43.495 11.485 44 13 C40.7 12.01 37.4 11.02 34 10 C34 9.34 34 8.68 34 8 C33.06994141 7.83564453 33.06994141 7.83564453 32.12109375 7.66796875 C24.05713725 6.22420361 16.02898891 4.6253014 8 3 C8 2.34 8 1.68 8 1 C5.36 1 2.72 1 0 1 C0 0.67 0 0.34 0 0 Z " fill="#6A6275" transform="translate(670,9)"/>
<path d="M0 0 C0.66 0 1.32 0 2 0 C0.61163356 4.16509933 -1.31755366 6.75127978 -4.3125 9.9375 C-8.05364931 13.96316676 -8.05364931 13.96316676 -11.5625 18.1875 C-14.73545428 21.84860109 -18.29333518 24.89304898 -22 28 C-22.60972656 28.51304687 -23.21945312 29.02609375 -23.84765625 29.5546875 C-25.22691081 30.70895728 -26.61266808 31.85545117 -28 33 C-28.66 32.67 -29.32 32.34 -30 32 C-27.73542838 29.64832947 -25.41022223 27.48804739 -22.875 25.4375 C-19.89010477 23.13408751 -19.89010477 23.13408751 -18 20 C-17.360625 19.71125 -16.72125 19.4225 -16.0625 19.125 C-13.29674079 17.61640407 -12.57327286 15.70602931 -11 13 C-9.33333333 11.33333333 -7.66666667 9.66666667 -6 8 C-4.39929346 5.88675196 -2.85307906 3.74542419 -1.33203125 1.57421875 C-0.89246094 1.05472656 -0.45289063 0.53523437 0 0 Z " fill="#756B7E" transform="translate(774,799)"/>
<path d="M0 0 C3.31820188 0.41477523 5.84078889 1.37234442 8.75 2.9375 C12.38848757 4.83881493 15.78549102 5.7300952 19.796875 6.5078125 C21.90451242 6.97866767 23.75361815 7.62384858 25.75 8.4375 C31.30336952 10.64981794 37.17155647 11.74724003 43 13 C38.8204355 15.78637633 36.85331323 14.79562512 32 14 C32 13.34 32 12.68 32 12 C31.05253906 11.87044922 31.05253906 11.87044922 30.0859375 11.73828125 C19.46644946 10.07037895 9.08608009 6.84105149 0 1 C0 0.67 0 0.34 0 0 Z " fill="#867879" transform="translate(90,846)"/>
<path d="M0 0 C0.66 0.66 1.32 1.32 2 2 C4.66966114 2.33221401 4.66966114 2.33221401 7.82666016 2.31884766 C9.65833237 2.34865219 9.65833237 2.34865219 11.52700806 2.37905884 C12.86435769 2.39093608 14.20170925 2.40259889 15.5390625 2.4140625 C16.90385112 2.43276749 18.26862811 2.4523404 19.63339233 2.4727478 C23.22706243 2.52414605 26.82077005 2.56373027 30.41461182 2.60089111 C34.0811904 2.64088279 37.74761185 2.6919971 41.4140625 2.7421875 C48.60926732 2.83903773 55.80454795 2.92341307 63 3 C63.33 2.34 63.66 1.68 64 1 C64 1.99 64 2.98 64 4 C42.55 4 21.1 4 -1 4 C-0.67 2.68 -0.34 1.36 0 0 Z " fill="#392C11" transform="translate(394,234)"/>
<path d="M0 0 C0.33 0.99 0.66 1.98 1 3 C0.39414063 3.40089844 -0.21171875 3.80179688 -0.8359375 4.21484375 C-7.38590846 8.65874712 -13.23134404 13.58728239 -19 19 C-19.66 18.67 -20.32 18.34 -21 18 C-7.4025974 3.7012987 -7.4025974 3.7012987 0 0 Z " fill="#5E5977" transform="translate(71,35)"/>
<path d="M0 0 C0 0.33 0 0.66 0 1 C-2.31 1 -4.62 1 -7 1 C-7 1.66 -7 2.32 -7 3 C-9.03959477 3.50838564 -11.08179138 4.00633886 -13.125 4.5 C-14.26195313 4.7784375 -15.39890625 5.056875 -16.5703125 5.34375 C-19.81466698 5.96453765 -22.70814457 6.12006768 -26 6 C-26 5.34 -26 4.68 -26 4 C-23.16888282 3.32246768 -20.33570624 2.65781273 -17.5 2 C-16.70851563 1.80921875 -15.91703125 1.6184375 -15.1015625 1.421875 C-9.93737043 0.23665059 -5.29774939 -0.19441282 0 0 Z " fill="#5E5A7B" transform="translate(140,9)"/>
<path d="M0 0 C0.33 0.66 0.66 1.32 1 2 C0.34 2 -0.32 2 -1 2 C-1 2.66 -1 3.32 -1 4 C-5.61012242 6.95047835 -8.36529617 8.5497272 -14 8 C-13.67 7.34 -13.34 6.68 -13 6 C-12.34 6 -11.68 6 -11 6 C-11 5.34 -11 4.68 -11 4 C-5.555 2.02 -5.555 2.02 0 0 Z " fill="#938061" transform="translate(112,14)"/>
<path d="M0 0 C0.33 0.66 0.66 1.32 1 2 C-0.57970345 4.08617326 -2.16358284 6.16894154 -3.75 8.25 C-4.1934375 8.83652344 -4.636875 9.42304687 -5.09375 10.02734375 C-7.5512507 13.24377849 -10.04682748 16.21242594 -13 19 C-13 15.1136865 -11.76808101 14.14236735 -9.3125 11.1875 C-8.58675781 10.30707031 -7.86101563 9.42664062 -7.11328125 8.51953125 C-6.06720703 7.27236328 -6.06720703 7.27236328 -5 6 C-4.45730469 5.34386719 -3.91460937 4.68773437 -3.35546875 4.01171875 C-2.24351348 2.66904078 -1.12294656 1.33349904 0 0 Z " fill="#4C4D83" transform="translate(49,54)"/>
<path d="M0 0 C0.99 0.33 1.98 0.66 3 1 C3.33 1.99 3.66 2.98 4 4 C4.7425 4.7425 5.485 5.485 6.25 6.25 C9.30495479 9.30495479 11.55938043 12.44366862 14 16 C10.21663952 14.45895157 8.02055175 12.14190393 5.3125 9.125 C4.52488281 8.26132812 3.73726562 7.39765625 2.92578125 6.5078125 C1.14376787 4.18721902 0.39103185 2.84989312 0 0 Z " fill="#6C6686" transform="translate(40,804)"/>
<path d="M0 0 C0.66 0 1.32 0 2 0 C0.44997253 3.88397689 -2.00476621 6.02979619 -5.125 8.75 C-6.49011719 9.94882812 -6.49011719 9.94882812 -7.8828125 11.171875 C-8.58148437 11.77515625 -9.28015625 12.3784375 -10 13 C-10.66 12.67 -11.32 12.34 -12 12 C-9.73542838 9.64832947 -7.41022223 7.48804739 -4.875 5.4375 C-1.89010477 3.13408751 -1.89010477 3.13408751 0 0 Z " fill="#7E727A" transform="translate(756,819)"/>
<path d="M0 0 C0.33 0.66 0.66 1.32 1 2 C-0.07192184 3.3218362 -1.15802695 4.63217927 -2.25 5.9375 C-2.85328125 6.66839844 -3.4565625 7.39929688 -4.078125 8.15234375 C-6.10741134 10.10326334 -7.254407 10.61731779 -10 11 C-6.79239749 7.19364503 -3.59253891 3.45436433 0 0 Z " fill="#C39E3C" transform="translate(377,246)"/>
<path d="M0 0 C2.71212397 2.36921174 3.92238997 4.67106739 5.25 8 C5.60578125 8.86625 5.9615625 9.7325 6.328125 10.625 C7 13 7 13 6 16 C5.18082358 14.27398621 4.36993984 12.5440353 3.5625 10.8125 C3.11003906 9.84957031 2.65757813 8.88664063 2.19140625 7.89453125 C1.09618578 5.23368414 0.45045204 2.83215245 0 0 Z " fill="#736A81" transform="translate(20,768)"/>
<path d="M0 0 C5.91492272 0.45224761 11.35199888 1.1582605 17 3 C12.8204355 5.78637633 10.85331323 4.79562512 6 4 C6 3.34 6 2.68 6 2 C3.03 1.505 3.03 1.505 0 1 C0 0.67 0 0.34 0 0 Z " fill="#6F6885" transform="translate(116,856)"/>
<path d="M0 0 C1.60568666 0.28317926 3.20952047 0.57687791 4.8125 0.875 C6.15248047 1.11863281 6.15248047 1.11863281 7.51953125 1.3671875 C10 2 10 2 13 4 C5.375 3.125 5.375 3.125 2 2 C2.33 3.98 2.66 5.96 3 8 C2.34 7.67 1.68 7.34 1 7 C0.59270772 4.67843403 0.25561323 2.3431213 0 0 Z " fill="#463715" transform="translate(311,221)"/>
<path d="M0 0 C0.66 0.33 1.32 0.66 2 1 C-1.45856848 3.94995547 -4.80021485 6.22675738 -9 8 C-9.66 7.67 -10.32 7.34 -11 7 C-9.68 6.34 -8.36 5.68 -7 5 C-7 4.34 -7 3.68 -7 3 C-5.5459375 2.5359375 -5.5459375 2.5359375 -4.0625 2.0625 C-1.15934208 1.30476658 -1.15934208 1.30476658 0 0 Z " fill="#786E80" transform="translate(731,839)"/>
<path d="M0 0 C-0.33 1.98 -0.66 3.96 -1 6 C-1.33 4.68 -1.66 3.36 -2 2 C-3.0725 2.515625 -4.145 3.03125 -5.25 3.5625 C-8.25254899 5.00603317 -9.83246499 5.05818094 -13 4 C-11.2097939 3.32942113 -9.41778511 2.6636531 -7.625 2 C-6.62726562 1.62875 -5.62953125 1.2575 -4.6015625 0.875 C-2 0 -2 0 0 0 Z " fill="#5C481A" transform="translate(540,220)"/>
<path d="M0 0 C2.875 0.3125 2.875 0.3125 6 1 C6.66 1.99 7.32 2.98 8 4 C10.05925139 4.72382467 10.05925139 4.72382467 12 5 C12 5.66 12 6.32 12 7 C7.39104317 5.68315519 3.85859765 3.84801255 0 1 C0 0.67 0 0.34 0 0 Z " fill="#958372" transform="translate(78,839)"/>
<path d="M0 0 C0.99 0.495 0.99 0.495 2 1 C2 1.66 2 2.32 2 3 C2.66 3 3.32 3 4 3 C5.6875 4.8125 5.6875 4.8125 7 7 C6.67 7.99 6.34 8.98 6 10 C0.42857143 3.71428571 0.42857143 3.71428571 0 0 Z " fill="#716981" transform="translate(33,794)"/>
<path d="M0 0 C0.8971875 0.309375 0.8971875 0.309375 1.8125 0.625 C-0.25506277 3.4222908 -1.33190371 3.65192273 -4.875 4.3125 C-5.968125 4.415625 -7.06125 4.51875 -8.1875 4.625 C-3.2421875 -0.55580357 -3.2421875 -0.55580357 0 0 Z " fill="#B1913D" transform="translate(470.1875,394.375)"/>
<path d="M0 0 C0.66 0 1.32 0 2 0 C3.29243536 4.1196377 4.26252625 7.66831683 4 12 C2.33167423 9.49751135 1.37618326 7.58850813 0.375 4.8125 C0.11460938 4.09707031 -0.14578125 3.38164063 -0.4140625 2.64453125 C-0.60742188 2.10183594 -0.80078125 1.55914063 -1 1 C-0.67 0.67 -0.34 0.34 0 0 Z " fill="#766D80" transform="translate(16,756)"/>
<path d="M0 0 C0.99 0.495 0.99 0.495 2 1 C2 1.66 2 2.32 2 3 C2.66 3 3.32 3 4 3 C5.0625 4.8125 5.0625 4.8125 6 7 C5.67 7.99 5.34 8.98 5 10 C4.16121545 8.71186658 3.32913217 7.41936744 2.5 6.125 C2.0359375 5.40570312 1.571875 4.68640625 1.09375 3.9453125 C0 2 0 2 0 0 Z " fill="#615E86" transform="translate(27,784)"/>
<path d="M0 0 C0.66 0.33 1.32 0.66 2 1 C-2 7.57142857 -2 7.57142857 -6 9 C-4.68775452 5.06326356 -3.08089673 2.77280706 0 0 Z " fill="#635E7C" transform="translate(41,64)"/>
<path d="M0 0 C0.33 0 0.66 0 1 0 C1.33 3.3 1.66 6.6 2 10 C0.68 9.34 -0.64 8.68 -2 8 C-1.34 7.67 -0.68 7.34 0 7 C0 4.69 0 2.38 0 0 Z " fill="#544218" transform="translate(562,684)"/>
<path d="M0 0 C0.99 0 1.98 0 3 0 C3 1.32 3 2.64 3 4 C2.34 4 1.68 4 1 4 C0.67 4.99 0.34 5.98 0 7 C-0.93423645 3.98968256 -1.04449911 3.13349732 0 0 Z " fill="#D9B247" transform="translate(496,357)"/>
</svg>
